<?xml version="1.0" encoding="utf-8"?>
<!-- Generator: Adobe Illustrator 22.1.0, SVG Export Plug-In . SVG Version: 6.00 Build 0)  -->
<svg version="1.0" id="Layer_1" xmlns="http://www.w3.org/2000/svg" xmlns:xlink="http://www.w3.org/1999/xlink" x="0px" y="0px"
	 viewBox="0 0 200 101.1" style="enable-background:new 0 0 200 101.1;" xml:space="preserve">
<style type="text/css">
	.st0{fill:#877489;}
	.st1{fill:#DCCEB6;}
	.st2{fill:none;}
	.st3{fill:#6D6E70;}
</style>
<g id="purple">
	<g id="graphic_1_">
		<g id="heart_1_">
			<path id="right_1_" class="st0" d="M60.6,22.8c0,0,1.6-6.3,9.6-11.3c23.5-15,40.3,9.1,36.7,27.1c-1.5,7.4-5.5,16.9-10,21.6
				c-1.1,1.2-7.8,7.7-10.1,9.7c-3,2.5-8.9,8.5-10,8.9c-1,0.5-6,5.7-8.4,7.7c-2.2,1.8-3.8,3.8-7.8,7.1l-0.9-8.3L60.6,22.8z"/>
			<path id="left_1_" class="st0" d="M61.6,23.4c0,0-2.5-6.8-10.4-11.9c-23.5-15-40.3,9.1-36.7,27.1C16,46,20,55.6,24.4,60.2
				c1.1,1.2,7.8,7.7,10.1,9.7c3,2.5,8.9,8.5,10,8.9c1,0.5,6,5.7,8.4,7.7c2.2,1.8,3.8,3.8,7.8,7.1L61.6,23.4z"/>
		</g>
		<g id="mug_1_">
			<path class="st1" d="M78.1,64.1c0.4,0.3,0.9,0.6,1.3,0.6c0.4,0,0.9-0.2,1.3-0.5c0.8-0.6,1.3-1.5,1.8-2.5c1-1.9,1.6-4,2.1-6.2
				c0.9-4.3,1.2-8.7,0.7-13c-0.1-0.5-0.1-1.1-0.2-1.6l-0.1-0.8c-0.1-0.2-0.1-0.5-0.2-0.7c-0.3-0.9-0.6-1.7-1-2.1
				c-0.4-0.4-0.6-0.4-1.1-0.3c-0.5,0.1-1.1,0.5-1.6,1.1c-0.5,0.6-0.9,1.3-1.2,2.1c-0.1,0.2-0.1,0.4-0.2,0.6c0,0.1,0,0.2-0.1,0.3
				l0,0.3c-0.1,0.5-0.1,1-0.1,1.6c-0.2,2.2-0.2,4.5-0.4,6.8c-0.3,4.6-0.9,9.2-1.9,13.8c-0.5,2.3-1.1,4.6-2.1,6.8
				c-0.5,1.1-1.1,2.2-2.1,3.1c-0.2,0.2-0.5,0.4-0.8,0.6c-0.3,0.2-0.5,0.3-0.8,0.5c-0.5,0.3-1.1,0.5-1.6,0.7
				c-2.2,0.8-4.6,1.3-6.9,1.5c-2.3,0.2-4.7,0.3-7,0.1c-2.3-0.1-4.6-0.3-7.1-1.1c-0.3-0.1-0.6-0.2-0.9-0.4c-0.3-0.1-0.5-0.3-0.8-0.4
				c-0.5-0.3-1.1-0.7-1.6-1.1c-1-0.8-1.9-1.8-2.6-2.9c-1.4-2.1-2.3-4.4-3-6.7c-0.7-2.3-1.1-4.6-1.4-7c-0.6-4.6-1.1-9.1-1.3-13.8
				c0-1.2,0-2.4,0.1-3.7c0.1-1.3,0.3-2.6,0.9-4.1c0.2-0.4,0.3-0.7,0.5-1.1c0.1-0.2,0.2-0.3,0.3-0.5c0.2-0.2,0.3-0.4,0.5-0.6
				c0.8-0.9,2.1-1.3,3-1.4c0.9-0.1,1.6-0.1,2.3,0c0.7,0.1,1.3,0.2,1.9,0.3c2.3,0.4,4.4,0.8,6.6,1c2.2,0.3,4.3,0.4,6.5,0.4
				c1.1,0,2.2,0,3.3,0c1.1,0,2.3,0,3.4,0c2.2-0.1,4.4-0.2,6-0.7c0.8-0.3,1.3-0.6,1.4-0.8c0-0.1,0.1-0.1,0.1-0.2c0-0.1,0-0.1,0-0.2
				l0-0.1c0,0,0-0.1,0,0c0,0.2,0.1,0.4,0.1,0.4c0,0,0-0.1-0.1-0.2c-0.5-0.4-1.4-0.9-2.4-1.2c-1-0.3-2-0.6-3.1-0.9
				c-4.3-1-8.8-1.4-13.2-1.4c-2.2,0-4.5,0.1-6.7,0.4c-1.1,0.2-2.2,0.4-3.2,0.7c-1,0.3-2.1,0.7-3,1.4l-0.3-0.4c1.7-1.7,4-2.6,6.2-3.3
				c2.3-0.7,4.6-1.1,6.9-1.4c4.6-0.5,9.3-0.5,14.1,0.1c1.2,0.2,2.4,0.4,3.6,0.7c1.2,0.4,2.4,0.7,3.8,1.7c0.3,0.3,0.7,0.6,1.1,1
				c0.3,0.4,0.7,1.1,0.7,1.9c0,0.2,0,0.3,0,0.4l0,0.3c0,0.2,0,0.5-0.1,0.7c-0.1,0.5-0.2,0.9-0.4,1.4c-0.4,0.9-1.1,1.7-1.8,2.2
				c-0.7,0.5-1.4,0.9-2.1,1.2c-2.7,1-5.1,1.2-7.5,1.4c-2.4,0.1-4.6,0.2-7,0.3c-2.4,0-4.8-0.1-7.1-0.4c-2.4-0.3-4.7-0.7-6.9-1.2
				c-1.1-0.2-2.2-0.4-2.6-0.3c-0.2,0-0.1,0-0.1-0.1c0,0,0,0,0,0c0,0-0.1,0.1-0.1,0.2c-0.1,0.1-0.2,0.3-0.3,0.5
				c-0.6,1.3-0.8,3.6-0.8,5.7c0,2.2,0.1,4.4,0.2,6.7c0.1,2.2,0.2,4.6,0.4,6.8c0.1,2.2,0.4,4.4,0.8,6.5c0.4,2.1,1,4.2,2,6
				c0.5,0.9,1.1,1.7,1.8,2.4c0.4,0.3,0.7,0.7,1.2,1c0.2,0.2,0.4,0.3,0.7,0.4c0.2,0.1,0.4,0.2,0.6,0.3c1.9,0.8,4.2,1.2,6.4,1.5
				c2.2,0.2,4.5,0.3,6.7,0.1c2.2-0.2,4.4-0.5,6.5-1.3c0.5-0.2,1-0.4,1.5-0.7c0.2-0.1,0.4-0.3,0.7-0.4c0.2-0.1,0.4-0.3,0.5-0.5
				c0.7-0.7,1.2-1.7,1.6-2.6c0.8-2,1.1-4.2,1.4-6.4c0.5-4.5,0.3-9,0.3-13.5C75,47.6,75,45.3,75,43c0-0.6,0-1.2,0.1-1.8l0.1-0.5
				c0-0.2,0.1-0.4,0.1-0.6c0.1-0.4,0.2-0.7,0.3-1c0.4-1.4,1.1-2.7,2.1-3.8c1-1.1,2.3-2.1,4.1-2.4c0.9-0.2,1.9-0.1,2.8,0.2
				c0.9,0.3,1.7,0.9,2.3,1.5c1.2,1.3,1.7,2.7,1.9,4c0.1,0.3,0.1,0.7,0.2,1l0.1,0.9c0.1,0.6,0.1,1.2,0.2,1.8c0.1,2.4,0,4.8-0.3,7.2
				c-0.3,2.4-0.9,4.7-1.7,6.9c-0.8,2.2-1.8,4.4-3.2,6.4c-0.7,1-1.6,1.9-2.7,2.5c-0.6,0.3-1.3,0.5-2,0.3c-0.7-0.2-1.2-0.6-1.6-1.1
				L78.1,64.1z"/>
		</g>
	</g>
	<g id="text_1_">
		<rect x="113.8" y="17.6" class="st2" width="95.6" height="78.5"/>
		<path class="st3" d="M131.1,17.6l-3.2,21.6h-3.2L122.8,27c0-0.4-0.1-1.1-0.1-2c0,0.4,0,1.1-0.1,2l-1.9,12.2h-3.2l-3.2-21.6h3.3
			l1.7,12.8c0,0.4,0.1,1.1,0.1,2c0-0.4,0.1-1.1,0.1-2l1.9-12.8h2.7l1.9,12.8c0,0.4,0.1,1.1,0.1,2c0-0.4,0-1.1,0.1-2l1.7-12.8H131.1z
			"/>
		<path class="st3" d="M141.8,39.2h-9V17.6h8.9v2.9h-5.6v6.3h4.9v2.8h-4.9v6.8h5.7V39.2z"/>
		<path class="st0" d="M113.3,57.1c0.2-0.2,0.4-0.3,0.5-0.4c0.1-0.1,0.2-0.2,0.3-0.3c0.1-0.1,0.3-0.3,0.4-0.4s0.1-0.2,0.2-0.3
			c0.1-0.3,0.2-0.7,0.3-1.2c0.1-0.5,0.3-1,0.4-1.6c0.1-0.2,0.2-0.4,0.3-0.7c0.1-0.3,0.2-0.6,0.3-0.9c0.1-0.5,0.2-0.9,0.4-1.3
			c0.2-0.4,0.3-0.7,0.6-1c0.1-0.1,0.1-0.2,0.2-0.3s0.1-0.3,0.2-0.4c0.1-0.1,0.2-0.3,0.3-0.5s0.2-0.4,0.4-0.7c0.4-0.6,0.7-1,1-1.4
			s0.5-0.7,0.7-1c0.3-0.4,0.7-0.8,1-1.1c0.3-0.3,0.7-0.7,1-1c0.3-0.3,0.6-0.5,0.8-0.6c0.2-0.1,0.4-0.2,0.6-0.2
			c0.1,0.1,0.2,0.2,0.3,0.3c0.1,0,0.1,0,0.2,0c0.2,0,0.4,0.1,0.5,0.3c0.1,0.2,0.2,0.5,0.2,0.9c0,0.1,0,0.2,0,0.3S124,43.8,124,44
			c-0.1,0.1-0.1,0.1-0.1,0.2s-0.1,0.2-0.1,0.3c0,0.1,0,0.2,0,0.3c0,0.1,0,0.2-0.1,0.2c-0.1,0.2-0.2,0.5-0.4,0.8
			c-0.1,0.3-0.3,0.7-0.4,1.1c-0.1,0.2-0.2,0.4-0.3,0.6c-0.1,0.3-0.3,0.5-0.5,0.9c-0.1,0.2-0.2,0.4-0.4,0.7c-0.1,0.3-0.3,0.6-0.5,0.9
			c-0.1,0.1-0.1,0.3-0.3,0.4c-0.1,0.2-0.3,0.3-0.5,0.5c-0.1,0.1-0.2,0.4-0.5,0.8c-0.3,0.4-0.6,0.8-1.1,1.4c-0.2,0.3-0.5,0.6-0.9,1.1
			c-0.4,0.4-0.8,0.9-1.2,1.5c-0.2,0.7-0.3,1.3-0.4,1.8c-0.1,0.5-0.1,1-0.1,1.4c0,0.2,0,0.3,0,0.4s0.1,0.1,0.1,0.1
			c0-0.1,0.1-0.1,0.2-0.2c0.1-0.1,0.2-0.2,0.3-0.3c0.2-0.2,0.4-0.4,0.6-0.9s0.5-1,0.8-1.6c0.3-0.6,0.5-1.1,0.7-1.4
			c0.2-0.3,0.4-0.5,0.5-0.6l0.5-0.2c0.1,0,0.2-0.1,0.2-0.1c0.1,0,0.1,0,0.2,0c0.1,0,0.2,0.1,0.3,0.2c0.1,0.1,0.2,0.3,0.2,0.6
			c0.1,0.5,0.2,0.8,0.3,1.1s0.1,0.4,0.1,0.4c0.1,0.3,0.3,0.5,0.4,0.6s0.4,0.2,0.6,0.2c0.3,0,0.6-0.1,1-0.2c0.1,0.2,0.2,0.4,0.3,0.6
			c0.1,0.2,0.2,0.4,0.3,0.7c-0.2,0.1-0.4,0.3-0.7,0.4c-0.2,0.1-0.4,0.3-0.7,0.4c-0.1,0.1-0.4,0.1-0.6,0.2c-0.3,0-0.6,0.1-1,0.1
			c-0.6,0-1-0.3-1.3-0.8c-0.3-0.5-0.5-0.8-0.6-0.8h-0.1c-0.1,0.2-0.3,0.4-0.5,0.6c-0.2,0.2-0.3,0.4-0.5,0.6
			c-0.1,0.2-0.2,0.5-0.4,0.7c-0.2,0.3-0.4,0.6-0.7,0.9c-0.3,0.4-0.6,0.6-0.8,0.8c-0.2,0.2-0.4,0.3-0.6,0.3c-0.3,0-0.6,0-0.8-0.1
			c-0.2-0.1-0.3-0.2-0.4-0.4c-0.1-0.5-0.2-1-0.3-1.3c-0.1-0.4-0.1-0.7-0.1-1c0-0.1,0-0.2,0-0.2c0-0.1,0-0.1,0-0.2
			c0-0.1,0.1-0.2,0.1-0.4c0,0,0-0.1,0-0.1c0,0-0.1,0-0.1,0c0,0-0.1,0.1-0.1,0.1s-0.1,0.1-0.2,0.2c0-0.1-0.1-0.3-0.2-0.5
			C113.6,57.6,113.5,57.4,113.3,57.1z M122.3,44.3c-0.1,0-0.3,0.2-0.6,0.5c-0.3,0.4-0.7,0.9-1.2,1.6c-0.3,0.4-0.5,0.8-0.8,1.2
			c-0.3,0.4-0.5,0.8-0.8,1.2c-0.1,0.1-0.2,0.2-0.2,0.3s-0.1,0.2-0.1,0.3c-0.2,0.5-0.4,1-0.5,1.4c-0.2,0.5-0.3,0.9-0.4,1.1
			s-0.2,0.4-0.2,0.5l0.1,0.1c0.2-0.2,0.3-0.3,0.5-0.5c0.2-0.2,0.4-0.5,0.7-0.8c0.3-0.3,0.6-0.7,0.9-1.2c0.3-0.4,0.7-1,1-1.6
			s0.7-1.4,1.1-2.2c0.2-0.5,0.4-0.8,0.5-1.1s0.2-0.5,0.2-0.6c0-0.1,0-0.1,0-0.2C122.4,44.3,122.4,44.3,122.3,44.3z"/>
		<path class="st0" d="M123.4,57.1c0.1-0.2,0.3-0.4,0.4-0.6c0.2-0.2,0.4-0.4,0.7-0.6c0-0.2,0.1-0.4,0.1-0.5c0-0.2,0-0.4,0.1-0.5
			c0-0.1,0.1-0.3,0.1-0.5s0.1-0.4,0.2-0.6c0.1-0.2,0.2-0.5,0.3-0.8c0.1-0.3,0.3-0.6,0.6-1c0.2-0.2,0.4-0.4,0.6-0.7s0.4-0.5,0.6-0.8
			c0.1-0.1,0.2-0.2,0.3-0.2c0.1-0.1,0.2-0.2,0.4-0.2c0.1,0,0.2-0.1,0.4-0.1s0.3,0,0.5,0c0.2,0,0.4,0,0.6,0.1c0.1,0,0.3,0.1,0.4,0.2
			c0.1,0.1,0.1,0.2,0.2,0.3c0.1,0.1,0.1,0.3,0.2,0.5c0,0.2,0.1,0.4,0.1,0.6c0-0.1,0,0,0,0.1s-0.1,0.3-0.1,0.5l-0.1,0.4
			c-0.1,0.4-0.4,1-0.9,1.5c-0.5,0.6-1.1,1.2-1.8,2c-0.1,0.1-0.1,0.1-0.2,0.2s-0.1,0.2-0.1,0.3c0,0.2,0,0.4,0.1,0.5
			c0.1,0.1,0.2,0.3,0.3,0.3c0.1,0.1,0.2,0.1,0.4,0.2c0.2,0.1,0.4,0.1,0.6,0.2c0.4,0,0.7-0.1,1-0.2c0.3-0.1,0.6-0.2,0.8-0.3
			c0,0,0.1-0.1,0.2-0.1c0.1,0,0.2-0.1,0.3-0.2c0.1,0.3,0.2,0.5,0.3,0.7c0.1,0.2,0.2,0.4,0.2,0.6c-0.5,0.5-1,0.9-1.4,1.2
			c-0.4,0.3-0.8,0.4-1.2,0.4c-0.1,0.1-0.3,0.2-0.5,0.2s-0.4,0.1-0.7,0.1c-0.3,0-0.6,0-0.9-0.2c-0.3-0.1-0.5-0.2-0.7-0.4
			c-0.1-0.1-0.2-0.2-0.3-0.4s-0.2-0.4-0.3-0.6c-0.1-0.2-0.2-0.4-0.2-0.4c-0.1-0.1-0.2-0.1-0.2-0.1c-0.1,0-0.2,0-0.2,0.1
			c-0.1,0.1-0.2,0.2-0.3,0.3c0-0.1-0.1-0.3-0.2-0.5S123.6,57.4,123.4,57.1z M127.9,52.6c-0.2,0-0.5,0.3-0.8,0.8
			c-0.3,0.5-0.5,0.9-0.5,1.2c0,0.1,0,0.1,0,0.1c0,0,0.1,0,0.1,0c0.1,0,0.2-0.1,0.2-0.2s0.1-0.2,0.2-0.3c0.1-0.1,0.2-0.2,0.3-0.3
			c0.1-0.1,0.2-0.2,0.3-0.3c0.1-0.1,0.2-0.3,0.2-0.4c0.1-0.1,0.1-0.3,0.1-0.4c0-0.1,0-0.1,0-0.2C128,52.6,127.9,52.6,127.9,52.6z"/>
		<path class="st0" d="M130.8,56.5l1.3-0.8c0,0,0.1-0.1,0.2-0.2c0.1-0.1,0.1-0.2,0.2-0.3c0.1-0.1,0.1-0.2,0.3-0.3
			c0.1-0.1,0.2-0.2,0.4-0.2c0.1-0.1,0.2-0.2,0.3-0.3c0.1-0.1,0.3-0.3,0.5-0.5c0.1-0.1,0.2-0.1,0.4-0.2c0.2-0.1,0.3-0.2,0.5-0.4
			c0.8-0.8,1.6-1.4,2.2-1.8s1.2-0.6,1.6-0.6c0.2,0,0.4,0.1,0.5,0.2s0.2,0.2,0.2,0.4c0,0.2,0,0.4-0.1,0.5c-0.1,0.1-0.2,0.3-0.3,0.4
			c-0.2,0.2-0.5,0.3-0.7,0.6c-0.1,0.2-0.3,0.4-0.5,0.6c-0.2,0.2-0.5,0.4-0.7,0.6c-0.1,0.1-0.2,0.2-0.2,0.3c0,0-0.1,0.1-0.3,0.2
			c-0.1,0.1-0.3,0.3-0.5,0.4c-0.1,0.2-0.3,0.5-0.6,0.8c-0.3,0.3-0.7,0.7-1.2,1.2c-0.1,0.1-0.2,0.2-0.3,0.4c-0.2,0.2-0.4,0.5-0.6,0.9
			l0.1,0.1c0.2-0.1,0.4-0.2,0.6-0.3s0.5-0.4,0.7-0.6c0.3-0.3,0.6-0.5,0.8-0.7c0.2-0.2,0.3-0.3,0.4-0.4c0.1,0,0.1-0.1,0.2-0.1
			c0.1,0,0.1-0.1,0.2-0.1c0.4-0.5,0.8-0.9,1.2-1.1c0.4-0.2,0.7-0.4,1-0.4c0.2,0,0.3,0.1,0.4,0.2c0.1,0.2,0.2,0.4,0.2,0.7
			c0,0.5,0,0.9,0,1.3c0,0.3,0.1,0.6,0.2,0.8c0.2,0.2,0.4,0.4,0.7,0.4c0.1,0,0.2,0,0.2-0.1c0.1,0,0.2-0.1,0.2-0.2
			c0.1-0.1,0.1-0.2,0.2-0.2c0.1-0.1,0.1-0.1,0.2-0.2c0,0,0.1-0.1,0.2-0.1c0.1,0,0.1-0.1,0.2-0.2c0.1,0.3,0.2,0.5,0.3,0.7
			c0.1,0.2,0.2,0.4,0.2,0.5c-0.2,0.2-0.4,0.4-0.6,0.6s-0.4,0.4-0.7,0.6c-0.3,0.2-0.5,0.4-0.8,0.5s-0.5,0.2-0.8,0.2
			c-0.6,0-1.1-0.2-1.4-0.5c-0.3-0.3-0.5-0.9-0.6-1.5c0-0.1,0-0.2,0-0.3c0-0.1-0.1-0.2-0.1-0.3c0,0-0.1,0.1-0.2,0.1
			c-0.1,0.1-0.1,0.1-0.2,0.2c-0.1,0.1-0.3,0.2-0.4,0.3c-0.2,0.1-0.4,0.3-0.6,0.5c-0.3,0.3-0.6,0.6-0.8,0.8s-0.4,0.4-0.5,0.5
			c-0.2,0.2-0.4,0.3-0.6,0.5c-0.2,0.2-0.5,0.3-0.8,0.5c-0.2,0.1-0.4,0.2-0.5,0.2c-0.1,0.1-0.2,0.1-0.3,0.1c-0.4,0-0.8-0.1-1-0.3
			c-0.2-0.2-0.3-0.5-0.3-1c0-0.2,0.1-0.5,0.2-0.7c0.1-0.2,0.3-0.4,0.5-0.7c0-0.1,0-0.2,0-0.3c0,0,0-0.1,0-0.1c0-0.1-0.1-0.1-0.1-0.2
			c-0.1-0.1-0.1-0.3-0.2-0.4c-0.1-0.2-0.1-0.3-0.2-0.5c0,0,0.1-0.1,0.2-0.2C130.7,56.8,130.7,56.6,130.8,56.5z"/>
		<path class="st0" d="M141,57.1c0.1-0.2,0.3-0.4,0.4-0.6c0.7-0.6,1.2-1.1,1.6-1.6s0.7-1,0.9-1.4l-0.1-0.7c0.1-0.2,0.4-0.5,0.9-0.8
			c0.5-0.3,0.9-0.5,1.2-0.5c0.3,0,0.6,0.1,0.8,0.3c0.2,0.2,0.4,0.4,0.6,0.6c0.1,0.1,0.2,0.1,0.2,0.2c0.4,0.3,0.6,0.7,0.8,1.1
			c0.2,0.5,0.3,1.1,0.3,1.8c0,0.4-0.1,0.9-0.4,1.6s-0.4,1.2-0.4,1.6c0,0,0,0.1,0,0.1c0,0,0.1,0,0.1,0c0.1,0,0.3-0.1,0.4-0.2
			c0.2-0.1,0.3-0.3,0.5-0.4c0.5-0.5,0.8-0.7,0.9-0.8c0.1-0.1,0.2-0.1,0.4-0.3c0.1,0.2,0.2,0.4,0.3,0.6c0.1,0.2,0.2,0.4,0.3,0.7
			c-0.1,0.1-0.2,0.2-0.3,0.3s-0.2,0.2-0.4,0.3c-0.3,0.2-0.7,0.5-1.2,0.8c-0.5,0.3-1.1,0.7-1.8,1.1c-0.2,0.1-0.4,0.2-0.6,0.3
			c-0.4,0-0.7-0.1-0.9-0.2c-0.2-0.1-0.3-0.3-0.3-0.6c0-0.1,0-0.2,0.1-0.4c0-0.1,0.1-0.3,0.2-0.4c0.1-0.1,0.1-0.2,0.2-0.4
			c0.1-0.1,0.1-0.3,0.2-0.4c0.2-0.6,0.4-1.1,0.5-1.6s0.2-0.9,0.2-1.3c0-0.5-0.1-0.9-0.2-1.1c-0.2-0.3-0.4-0.4-0.7-0.4
			c-0.2,0.1-0.4,0.3-0.7,0.5c-0.2,0.2-0.5,0.5-0.7,0.8c-0.3,0.3-0.5,0.6-0.7,0.8c-0.2,0.2-0.4,0.4-0.5,0.4c-0.1,0.1-0.2,0.3-0.4,0.5
			c-0.2,0.2-0.4,0.4-0.7,0.6c0,0,0,0.1-0.1,0.2c0,0.1-0.1,0.2-0.2,0.2c-0.1-0.2-0.2-0.4-0.2-0.6S141.1,57.3,141,57.1z"/>
		<path class="st0" d="M150.2,57.1l0.1-0.1c0.1-0.1,0.1-0.2,0.2-0.3s0.2-0.2,0.3-0.4c0.7-0.6,1.3-1.3,1.9-2.2
			c0.6-0.8,1.2-1.8,1.8-2.9c0.1-0.1,0.2-0.2,0.2-0.4c0.1-0.2,0.2-0.4,0.3-0.6c0-0.1,0-0.1,0-0.1c0,0-0.1,0-0.1,0c-0.1,0-0.1,0-0.3,0
			c-0.1,0-0.2,0-0.3,0h-1.7c-0.1,0-0.2,0-0.4,0c-0.2,0-0.3,0-0.4,0c-0.1,0-0.2-0.1-0.3-0.1c-0.1,0-0.2-0.1-0.2-0.1
			c-0.1,0-0.2-0.1-0.3-0.1c-0.1-0.1-0.1-0.1-0.1-0.2c0-0.6,0.1-1,0.2-1.4c0.1-0.3,0.3-0.5,0.6-0.5s0.5,0,0.7,0
			c0.2,0,0.4,0.1,0.6,0.1c0.1,0,0.3-0.1,0.4-0.1c0.2,0,0.5,0,0.6,0s0.3,0,0.4,0.1c0.1,0,0.2-0.1,0.4-0.1c0.1,0,0.2,0,0.4-0.1
			l0.5,0.1c0.3,0,0.7-0.5,1-1.4c0.4-0.9,0.8-1.3,1.2-1.3c0.2,0,0.4,0.1,0.5,0.2c0.1,0.1,0.2,0.3,0.2,0.6c0,0.2-0.1,0.5-0.2,0.8
			c-0.1,0.3-0.2,0.6-0.2,0.8c0,0,0,0.1,0.1,0.1c0,0,0.1,0.1,0.1,0.1c0.1,0,0.1,0.1,0.1,0.2c0,0.1,0,0.2,0,0.3c0,0.6,0,1-0.1,1.3
			c0,0.3-0.1,0.5-0.2,0.5l-0.9,0.2c0,0.1,0,0.2-0.1,0.3c0,0.1-0.1,0.3-0.1,0.5c-0.2,0.5-0.3,1-0.5,1.8c-0.2,0.7-0.4,1.5-0.6,2.5
			c-0.1,0.8-0.3,1.4-0.3,1.9c-0.1,0.5-0.1,0.8-0.1,1c0,0.1,0,0.3,0.1,0.3c0,0.1,0.1,0.1,0.2,0.1c0.1,0,0.3-0.1,0.6-0.4
			c0.3-0.3,0.8-0.7,1.4-1.2l0.5,1.3c-0.1,0.1-0.2,0.2-0.4,0.4c-0.2,0.1-0.4,0.3-0.6,0.4c-0.1,0.1-0.2,0.2-0.3,0.3
			c-0.1,0.1-0.3,0.3-0.5,0.4c-0.2,0.2-0.3,0.4-0.5,0.6c-0.2,0.2-0.3,0.4-0.5,0.5c-0.2,0.2-0.4,0.4-0.6,0.5s-0.4,0.2-0.6,0.2
			c-0.4,0-0.7-0.1-0.9-0.4c-0.2-0.2-0.3-0.6-0.3-1.1c0-0.5,0-1,0.1-1.4c0-0.4,0.1-0.7,0.2-0.9c0-0.1,0.1-0.1,0.1-0.2
			c0-0.1,0-0.2,0-0.4s0.1-0.3,0.1-0.6c0.1-0.4,0.1-0.7,0.2-1.1c0.1-0.2,0.2-0.5,0.3-0.7c0,0,0-0.1-0.1-0.1l-0.1,0.1
			c-0.1,0.2-0.3,0.5-0.5,0.7c-0.2,0.2-0.5,0.5-0.8,0.8c-0.5,0.5-0.9,0.9-1.4,1.4c0,0-0.1,0.1-0.2,0.2c-0.1,0.1-0.2,0.2-0.2,0.3
			c0-0.1-0.1-0.3-0.2-0.4c-0.1-0.2-0.1-0.4-0.2-0.6c0-0.1,0-0.1-0.1-0.2C150.3,57.1,150.2,57.1,150.2,57.1z"/>
		<path class="st3" d="M128.2,85.2h-3.1V74.5c0-0.6,0.1-1.3,0.2-2.3l-2.8,11h-1.6l-2.8-11c0.1,1,0.2,1.8,0.2,2.3v10.7h-3.1V63.6h3.1
			l3.4,11.9c0,0.1,0.1,0.5,0.1,1c0-0.2,0-0.6,0.1-1l3.4-11.9h3V85.2z"/>
		<path class="st3" d="M141.5,83.2c0,1.3-0.7,2-2,2h-6.9c-1.3,0-2-0.7-2-2V63.6h3.2v18.8h4.3V63.6h3.2V83.2z"/>
		<path class="st3" d="M154.8,83.2c0,1.3-0.7,2-2,2h-6.8c-1.3,0-1.9-0.7-1.9-2V65.6c0-1.3,0.7-2,2-2h6.7c1.3,0,2,0.7,2,2v4.6h-3.2
			v-3.8h-4.2v16h4.2v-6h-2.4v-2.7h5.6V83.2z"/>
		<path class="st3" d="M167.8,83.2c0,1.3-0.7,2-2,2h-6.5c-1.3,0-1.9-0.7-1.9-2v-5.1h3.2v4.4h3.9v-4.2l-6.5-6.1
			c-0.5-0.5-0.7-1-0.7-1.7v-4.8c0-1.3,0.6-2,1.9-2h6.5c1.3,0,2,0.7,2,2v4.8h-3.2v-4.1h-3.9v3.9l6.5,6.1c0.5,0.4,0.7,1,0.7,1.8V83.2z
			"/>
	</g>
</g>
</svg>
